<svg width="404" height="389" viewBox="0 0 404 389" fill="none" xmlns="http://www.w3.org/2000/svg">
<path d="M20 291L54 308L89.5 321L164 334H217.5L266.5 329L324 315.5L356 305.5L382.5 291L374.5 303L360.5 318L344.5 331.5L308.5 350L266.5 362.5L225 366.5L183.5 368L123.5 360.5L93 349L65 336L41.5 317L20 291Z" fill="#5DB65A"/>
<path d="M8 254L51 281.5L96.5 297L124.5 300H153.5L209.5 287L301.5 263.5L349 256L398.5 252L391.5 273L381.5 293.5L309.5 319.5L242.5 331L177.5 334L131 328.5L70.5 313L23.5 293L11.5 274L8 263.5V254Z" fill="#F4511E"/>
<path d="M127.5 360.5L158.5 366L203 368.5L247.5 365L276 360.5L280 370.5L271.5 375.5L260.5 378.5L238.5 384L212 386.5H186L161.5 384L138 378.5L122 372L120.5 366L127.5 360.5Z" fill="#EBF8EC"/>
<path d="M3.5 200.5L42.5 219.5L84 234L143.5 247L205 250L262 244L317.5 234L399 200.5L403 227.5L399 252.5L346 256L296.5 264.5L198.5 290L143.5 299H115L87.5 294.5L42.5 277L5.5 252.5L1.5 225.5L3.5 200.5Z" fill="#EBF8EC"/>
<path d="M3 198H34L58 210L84 221L115 229.5L154.5 237.5L196 240.5H221.5L247 237.5L298.5 226L335.5 213L371 196L400.5 198L367.5 215L317.5 232L267 243.5L212 249.5L159.5 247.5L106.5 240.5L40.5 217.5L3 198Z" fill="#D0EED0"/>
<path d="M3.5 198H32.5L53 186L81 175L111 166.5L151.5 158L194 155L219.5 158H246.5L297.5 169L335.5 181L370 196L400 198L365.5 183.5L343 173L315.5 166.5L265 155L210 149L157.5 151L104.5 158L38.5 181L3.5 198Z" fill="#D0EED0"/>
<path d="M33.5 197L69 180L110.5 168L150.5 160L196.5 157L248.5 160L299 170.5L336.5 182L371 197L328 216L284.5 230.5L243 238L202 240.5L155 238L110.5 228.5L71.5 216L33.5 197Z" fill="#EEB902"/>
<path d="M4.12397 198C-6.57185 254.585 17.8341 367.756 201.024 367.756C386.011 367.756 410.656 254.585 399.855 198M3 199.3C161.801 289.855 333.167 237.031 399 199.3M22 292C166.365 368.066 322.152 323.694 382 292M126 374C186.152 397.544 251.063 383.81 276 374M3.5 199C163.905 108.445 334.002 161.269 400.5 199M33.5 197C168.24 276.688 314.642 230.203 370.5 197M32 197C168.344 124.556 315.477 166.815 372 197M127.5 374.5C121.667 372.667 113.5 367.3 127.5 360.5M273 375C278.833 373.167 287 367.8 273 361M5 252C145.722 355.868 193.994 261.244 398 252" stroke="black" stroke-width="3"/>
<path d="M115 230.5C117.167 210.5 131.5 168.2 171.5 159" stroke="black" stroke-width="3"/>
<path d="M169 159C192.167 161.5 240.5 180.4 248.5 236" stroke="black" stroke-width="3"/>
<path d="M201.5 169C180.667 178 139.7 204.2 142.5 237" stroke="black" stroke-width="3"/>
<path d="M225 188C208.795 195.015 176.928 215.435 179.106 241" stroke="black" stroke-width="3"/>
<path d="M123 164.5C128.167 165.333 138.5 169.2 138.5 178" stroke="black" stroke-width="3"/>
<path d="M82 175.345C93.1555 173.089 115.372 180.862 114.995 230" stroke="black" stroke-width="3"/>
<path d="M62 183.5C69.3333 188.833 82.2 203.1 75 217.5" stroke="black" stroke-width="3"/>
<path d="M249.5 237C268.833 219 315.9 183.8 349.5 187" stroke="black" stroke-width="3"/>
<path d="M238 207C251.92 194.81 285.808 170.971 310 173.138" stroke="black" stroke-width="3"/>
<path d="M218 181C227.473 174.546 250.536 161.926 267 163.073" stroke="black" stroke-width="3"/>
<path d="M203 170C207.447 165.698 218.272 157.284 226 158.049" stroke="black" stroke-width="3"/>
<path d="M213.403 173.585L295.948 13.8213L315.33 24.0426L222.579 180.766L213.403 173.585Z" fill="#F4511E" stroke="black" stroke-width="3"/>
<path d="M230.227 188.105L224.809 182.688L379.485 71.5969L391.898 89.6196L230.227 188.105Z" fill="#F4511E" stroke="black" stroke-width="3"/>
<path d="M83.9999 122.5C37.5 76 126.4 37.4 83.9999 3" stroke="black" stroke-width="6"/>
<path d="M141.74 122.5C95.2402 76 184.14 37.4 141.74 3" stroke="black" stroke-width="6"/>
<path d="M199.48 122.5C152.98 76 241.88 37.4 199.48 3" stroke="black" stroke-width="6"/>
</svg>
