<?xml version="1.0" standalone="no"?>
<!DOCTYPE svg PUBLIC "-//W3C//DTD SVG 20010904//EN"
 "http://www.w3.org/TR/2001/REC-SVG-20010904/DTD/svg10.dtd">
<svg version="1.0" xmlns="http://www.w3.org/2000/svg"
 width="808.000000pt" height="808.000000pt" viewBox="0 0 808.000000 808.000000"
 preserveAspectRatio="xMidYMid meet">
<metadata>
Created by potrace 1.14, written by Peter Selinger 2001-2017
</metadata>
<g transform="translate(0.000000,808.000000) scale(0.100000,-0.100000)"
fill="#000000" stroke="none">
<path d="M1686 7877 c-20 -22 -36 -44 -36 -48 0 -5 29 -38 64 -74 64 -66 122
-166 134 -228 7 -41 7 -142 -1 -188 -11 -62 -57 -179 -115 -294 -30 -60 -60
-120 -66 -132 -6 -13 -14 -23 -18 -23 -5 0 -8 -5 -8 -10 0 -6 -26 -56 -58
-113 -133 -236 -208 -422 -230 -577 -18 -123 6 -336 44 -397 8 -13 12 -23 9
-23 -21 0 126 -221 192 -288 l42 -43 41 41 41 41 -54 62 c-142 163 -201 307
-201 492 0 98 10 154 46 259 36 106 171 390 198 416 3 3 13 21 22 40 30 59 72
136 83 151 6 8 22 39 35 69 14 30 27 57 30 60 4 3 20 43 37 90 48 132 56 174
56 290 0 152 -61 278 -199 417 l-52 51 -36 -41z"/>
<path d="M2855 7894 c-10 -14 -27 -35 -37 -47 -18 -21 -18 -21 39 -81 32 -33
61 -63 64 -66 18 -17 68 -123 79 -166 11 -50 11 -214 -1 -214 -3 0 -11 -23
-17 -50 -15 -67 -71 -189 -153 -337 -16 -28 -40 -73 -54 -99 -14 -26 -29 -52
-34 -58 -10 -13 -122 -234 -145 -286 -80 -186 -112 -365 -92 -520 14 -111 86
-290 142 -355 13 -16 24 -32 24 -36 0 -5 12 -21 28 -37 15 -16 42 -46 61 -66
l33 -38 39 38 c21 21 39 42 39 47 0 6 -10 19 -22 31 -92 86 -183 243 -214 371
-23 93 -19 253 8 324 5 14 9 28 9 31 -1 16 23 91 30 96 5 3 9 12 9 21 0 19
161 344 180 363 3 3 13 21 24 40 10 19 32 60 49 90 81 146 155 320 173 405 12
57 13 220 3 260 -32 117 -90 214 -186 307 l-58 58 -20 -26z"/>
<path d="M3992 7873 l-38 -45 68 -71 c69 -71 120 -157 134 -227 14 -68 6 -197
-15 -253 -5 -14 -7 -28 -4 -31 4 -3 2 -6 -4 -6 -6 0 -13 -14 -17 -31 -8 -43
-135 -296 -163 -327 -7 -7 -13 -17 -13 -21 0 -4 -26 -54 -58 -112 -58 -105
-143 -276 -146 -294 -1 -5 -4 -14 -7 -20 -8 -12 -38 -105 -43 -131 -3 -10 -10
-41 -16 -69 -29 -120 -17 -295 28 -425 28 -78 120 -239 144 -248 4 -2 8 -7 8
-12 0 -5 22 -32 48 -60 l49 -52 43 42 43 41 -29 32 c-16 17 -32 34 -35 37 -14
13 -89 120 -112 160 -44 78 -79 197 -82 285 -3 66 14 208 28 250 2 6 7 17 10
25 3 8 11 33 18 55 6 22 31 81 55 132 24 50 44 96 44 101 0 6 4 12 8 14 4 2
23 32 41 68 19 36 37 67 40 70 3 3 15 24 26 47 11 24 24 43 28 43 5 0 6 4 3 8
-3 5 4 18 14 30 11 12 20 24 20 28 0 3 24 54 53 112 142 286 159 491 58 673
-37 66 -67 105 -133 170 l-57 57 -39 -45z"/>
<path d="M5844 7572 c-34 -64 -98 -187 -142 -272 -43 -85 -113 -220 -154 -300
-42 -80 -111 -215 -154 -300 -44 -85 -81 -157 -84 -160 -3 -3 -40 -75 -84
-160 -125 -247 -237 -462 -258 -497 -11 -18 -16 -33 -11 -33 4 0 -1 -7 -11
-15 -11 -8 -17 -15 -13 -15 6 0 -18 -49 -107 -214 -14 -27 -26 -55 -26 -62 0
-7 -3 -14 -8 -16 -4 -1 -34 -55 -66 -118 -33 -63 -98 -190 -144 -281 l-86
-165 -95 5 c-53 3 -260 5 -461 5 -313 0 -462 -4 -640 -18 -19 -2 -75 -6 -125
-10 -49 -4 -101 -9 -115 -11 -49 -7 -106 -15 -163 -20 -32 -4 -66 -8 -76 -10
-10 -2 -42 -6 -71 -10 -29 -4 -62 -9 -74 -11 -12 -2 -41 -7 -66 -10 -25 -3
-63 -10 -85 -14 -22 -5 -56 -11 -75 -15 -36 -6 -68 -12 -110 -21 -14 -3 -36
-7 -50 -10 -23 -4 -265 -59 -300 -68 -8 -2 -53 -14 -100 -26 -173 -43 -660
-196 -693 -217 -7 -4 -18 -8 -25 -9 -30 -5 -504 -201 -542 -225 -8 -5 -22 -12
-30 -15 -33 -12 -325 -157 -330 -163 -3 -4 -21 -13 -40 -21 -39 -16 -158 -84
-173 -99 -5 -5 -11 -22 -12 -38 -5 -40 -15 -113 -21 -148 -10 -53 -13 -468 -3
-491 5 -13 4 -26 -1 -29 -5 -3 -5 -19 0 -38 5 -17 11 -57 14 -87 8 -79 28
-191 42 -245 2 -5 6 -23 9 -40 18 -90 93 -325 134 -420 36 -82 140 -288 163
-322 15 -23 28 -45 28 -48 0 -6 78 -123 90 -135 3 -3 21 -27 39 -55 19 -27 37
-52 40 -55 4 -3 30 -34 60 -70 66 -79 264 -276 317 -316 22 -16 44 -34 49 -40
11 -12 87 -71 121 -94 200 -137 323 -209 496 -293 65 -31 120 -57 122 -57 3 0
31 -12 63 -26 31 -15 62 -27 67 -29 6 -1 25 -7 41 -14 38 -16 255 -91 275 -96
8 -2 58 -15 110 -29 52 -15 112 -31 134 -37 l39 -11 -29 -18 c-63 -39 -89 -96
-69 -154 21 -59 84 -99 254 -157 64 -22 123 -42 131 -45 118 -32 370 -96 398
-100 20 -3 51 -7 67 -9 17 -3 41 -7 55 -9 14 -3 43 -8 65 -11 22 -2 72 -9 111
-15 87 -12 245 -23 341 -24 40 -1 73 -4 73 -7 0 -4 15 -3 34 1 19 4 40 4 47
-1 8 -4 19 -3 28 4 8 7 15 11 15 10 4 -7 56 -21 56 -15 0 4 42 7 93 8 50 0
139 4 197 9 58 4 124 9 147 9 24 1 43 4 43 7 0 3 6 6 13 6 20 0 146 14 170 19
12 2 37 6 57 9 20 3 47 8 60 10 14 3 41 8 60 11 49 7 208 43 250 55 19 6 44
12 55 14 11 2 20 4 20 5 0 1 8 3 17 5 26 5 160 45 183 55 11 5 44 16 73 26 28
10 52 21 52 25 0 4 9 11 20 14 44 14 84 77 82 127 -1 33 -31 79 -67 102 -27
18 -33 32 -12 33 47 2 412 106 434 124 7 6 13 9 13 5 0 -11 352 127 425 167
11 6 22 12 25 12 3 1 33 15 67 33 35 18 66 32 69 31 4 0 10 3 13 8 3 6 33 24
66 42 33 18 79 46 103 62 24 16 45 29 48 29 8 0 187 132 263 194 156 126 323
299 446 460 46 60 148 214 174 261 12 22 35 65 51 94 24 45 71 149 130 286 28
64 104 320 114 380 2 17 5 32 6 35 1 3 3 10 4 15 1 6 5 30 10 55 13 69 13 72
20 125 24 193 32 387 21 545 -4 68 -34 302 -38 306 -1 1 -51 28 -112 59 -60
32 -121 63 -135 71 -33 18 -234 116 -237 115 -4 0 -72 29 -140 59 -35 16 -63
26 -63 23 0 -3 -6 0 -14 6 -15 13 -379 154 -426 166 -8 2 -46 14 -85 28 -38
13 -110 37 -160 52 -49 16 -115 36 -145 46 -30 10 -91 27 -135 39 -44 12 -103
28 -132 35 -28 8 -62 16 -75 19 -12 3 -38 9 -55 15 -18 5 -33 7 -33 4 0 -3 -7
0 -15 7 -8 7 -15 10 -15 6 0 -3 -12 -1 -27 5 -14 5 -38 12 -52 14 -14 2 -37 6
-51 9 -14 3 -59 13 -100 22 -124 27 -122 25 -44 71 61 36 285 172 447 272 32
20 70 43 85 52 15 9 97 59 182 111 85 52 177 107 204 124 95 57 234 142 389
237 87 53 162 97 167 97 6 0 10 4 10 9 0 5 8 12 18 15 19 7 29 13 124 74 37
23 72 42 77 42 4 0 14 7 21 16 8 8 27 22 44 30 47 22 101 55 104 65 2 5 9 9
15 9 13 1 210 122 211 130 1 3 -37 61 -84 129 -47 68 -93 138 -104 155 -10 17
-21 33 -25 36 -3 3 -19 24 -35 47 -31 46 -36 46 -90 -1 -16 -15 -33 -26 -37
-26 -4 0 -14 -6 -22 -14 -8 -8 -30 -25 -48 -38 -62 -43 -244 -172 -274 -195
-36 -28 -37 -28 -100 -73 -28 -19 -51 -38 -53 -42 -2 -4 -8 -8 -13 -8 -5 0
-17 -7 -26 -15 -10 -8 -81 -59 -158 -114 -77 -55 -145 -104 -150 -108 -6 -5
-44 -33 -85 -61 -106 -74 -171 -121 -200 -143 -14 -11 -63 -47 -110 -79 -93
-66 -87 -62 -215 -154 -49 -36 -105 -76 -124 -88 -18 -13 -42 -31 -52 -40 -10
-10 -21 -18 -24 -18 -5 0 -122 -85 -152 -110 -7 -5 -16 -10 -22 -10 -5 0 -11
-4 -13 -8 -3 -7 -54 -45 -313 -229 -40 -29 -75 -50 -77 -48 -2 3 -22 7 -44 10
-21 3 -55 8 -74 11 -57 8 -102 14 -150 20 -25 3 -56 6 -70 8 -14 2 -35 4 -47
4 -31 3 -29 14 12 78 19 30 35 57 35 59 0 3 12 24 27 48 40 61 45 70 72 121
14 25 28 46 33 46 4 0 8 5 8 10 0 6 57 107 128 226 158 267 163 275 176 299 6
11 18 31 27 45 17 27 157 262 175 295 6 11 62 106 124 210 62 105 124 210 138
235 14 25 28 47 31 50 3 3 13 19 22 35 9 17 53 93 99 170 46 77 96 163 112
190 16 28 47 79 68 114 22 34 40 64 40 66 0 2 31 56 70 120 l69 117 -47 25
c-26 14 -101 53 -167 86 -66 34 -122 64 -125 67 -6 6 -93 50 -100 50 -3 0 -33
-53 -66 -118z m-1994 -2746 c0 -2 -9 -6 -20 -9 -11 -3 -18 -1 -14 4 5 9 34 13
34 5z m53 -3 c-7 -2 -21 -2 -30 0 -10 3 -4 5 12 5 17 0 24 -2 18 -5z m1065
-68 c3 -3 -5 -3 -19 -1 -13 2 -30 5 -36 5 -7 1 -13 5 -13 10 0 9 57 -2 68 -14z"/>
</g>
</svg>
